<?xml version="1.0" encoding="UTF-8"?>
<svg width="86px" height="49px" viewBox="0 0 86 49" version="1.1" xmlns="http://www.w3.org/2000/svg" xmlns:xlink="http://www.w3.org/1999/xlink">
    <title>arrow-up</title>
    <g id="Page-1" stroke="none" stroke-width="1" fill="none" fill-rule="evenodd">
        <g id="arrow-up" transform="translate(42.848400, 24.792950) scale(1, -1) translate(-42.848400, -24.792950) translate(0.441200, 0.916000)" fill="#000000" fill-rule="nonzero">
            <path d="M1.3183,40.1367 C0.895166667,40.5273667 0.569666667,40.9994 0.3418,41.5528 C0.113933333,42.1061333 0,42.6920667 0,43.3106 C0,44.1569333 0.1953,44.9137667 0.5859,45.5811 C0.9765,46.2483667 1.50546667,46.7773333 2.1728,47.168 C2.84013333,47.5586 3.59696667,47.7539 4.4433,47.7539 C5.77796667,47.7539 6.83593333,47.3307333 7.6172,46.4844 L45.0195,8.3008 L39.7949,8.3008 L77.1972,46.4844 C78.011,47.3307333 79.0689667,47.7539 80.3711,47.7539 C81.2174333,47.7539 81.9742667,47.5586 82.6416,47.168 C83.3089333,46.7773333 83.8379,46.2483667 84.2285,45.5811 C84.6191,44.9137667 84.8144,44.1569333 84.8144,43.3106 C84.8144,42.0410667 84.3749667,40.9831 83.4961,40.1367 L45.7031,1.4649 C45.2799,1.00916667 44.7834667,0.651066667 44.2138,0.3906 C43.6441333,0.1302 43.0500667,0 42.4316,0 C41.1295333,0 40.0227667,0.4883 39.1113,1.4649 L1.3183,40.1367 Z" id="Path"></path>
        </g>
    </g>
</svg>